<?xml version="1.0" standalone="no"?>
<!DOCTYPE svg PUBLIC "-//W3C//DTD SVG 20010904//EN"
 "http://www.w3.org/TR/2001/REC-SVG-20010904/DTD/svg10.dtd">
<svg version="1.0" xmlns="http://www.w3.org/2000/svg"
 width="1332.000000pt" height="1332.000000pt" viewBox="0 0 1332.000000 1332.000000"
 preserveAspectRatio="xMidYMid meet">
<metadata>
Created by potrace 1.11, written by Peter Selinger 2001-2013
</metadata>
<g transform="translate(0.000000,1332.000000) scale(0.100000,-0.100000)"
fill="#000000" stroke="none">
<path d="M6567 13314 c-1 -1 -83 -5 -182 -8 -99 -4 -193 -9 -210 -11 -16 -2
-66 -6 -110 -9 -44 -4 -93 -8 -110 -10 -16 -2 -57 -7 -90 -10 -33 -4 -71 -9
-85 -11 -14 -2 -45 -7 -70 -10 -52 -7 -84 -12 -160 -25 -30 -5 -68 -12 -85
-14 -61 -11 -132 -25 -225 -46 -52 -12 -106 -24 -120 -26 -48 -10 -256 -65
-355 -95 -473 -143 -927 -334 -1332 -560 -155 -87 -298 -172 -301 -181 -2 -4
-7 -8 -12 -8 -37 0 -671 -463 -778 -568 -10 -9 -33 -30 -52 -46 -206 -170
-627 -606 -785 -811 -16 -21 -37 -46 -45 -55 -8 -8 -22 -25 -30 -36 -8 -12
-49 -66 -91 -120 -149 -193 -339 -485 -489 -749 -59 -103 -227 -441 -283 -567
l-26 -58 -58 5 c-32 3 -73 10 -91 15 -32 8 -34 7 -50 -28 -20 -46 -24 -236 -6
-332 25 -132 25 -128 -22 -276 -24 -77 -46 -149 -49 -160 -2 -10 -15 -62 -30
-114 -14 -52 -32 -120 -40 -150 -30 -114 -88 -403 -110 -555 -4 -22 -8 -51
-10 -65 -5 -31 -22 -169 -29 -230 -5 -43 -10 -98 -21 -225 -22 -257 -22 -777
0 -1005 3 -30 7 -84 10 -120 9 -103 14 -158 19 -187 3 -16 7 -50 11 -78 10
-85 24 -171 61 -385 3 -14 20 -95 40 -180 50 -222 50 -219 69 -291 l18 -66
-44 -44 c-80 -80 -166 -183 -188 -228 -21 -41 -22 -54 -19 -215 3 -149 7 -178
27 -228 89 -227 419 -503 681 -572 62 -16 67 -20 91 -64 303 -563 686 -1076
1152 -1546 54 -54 95 -102 90 -106 -50 -43 -165 -128 -233 -172 -47 -30 -132
-85 -190 -123 -312 -201 -444 -361 -442 -534 1 -142 98 -235 309 -300 99 -31
112 -34 218 -51 127 -20 208 -27 388 -35 126 -6 130 -5 162 19 39 30 50 66 35
111 -13 38 -32 52 -115 85 -177 69 -364 201 -340 240 17 27 139 64 280 84 22
4 65 11 95 16 30 5 69 12 85 15 134 23 256 62 337 107 l37 21 118 -85 c286
-206 664 -433 939 -563 43 -21 106 -51 139 -67 188 -91 699 -287 875 -333 8
-3 49 -14 90 -26 161 -46 396 -102 520 -124 14 -2 70 -13 125 -24 55 -11 120
-22 145 -25 25 -3 56 -8 69 -11 14 -2 47 -7 75 -10 28 -3 65 -8 81 -11 33 -6
85 -11 190 -19 39 -3 84 -8 100 -10 187 -23 854 -24 1045 0 19 2 69 6 110 10
86 6 218 22 305 35 33 5 85 12 115 16 30 3 58 8 62 10 4 3 26 7 50 10 24 3 86
15 138 26 52 11 106 22 120 25 133 23 462 114 685 188 1138 380 2154 1062
2936 1970 72 83 126 150 272 335 75 94 291 413 379 560 136 225 309 556 388
740 17 41 40 95 51 118 73 161 219 576 278 792 28 102 89 348 95 385 6 30 15
71 20 90 1 6 6 33 10 60 4 28 12 66 16 85 5 19 11 55 14 80 3 25 8 56 11 69 7
35 28 198 41 316 10 91 12 112 20 220 4 55 8 118 10 140 9 122 16 1055 7 1055
-5 0 -14 -5 -21 -12 -9 -9 -12 -9 -13 2 0 8 -2 22 -3 30 -2 8 -6 44 -10 80 -4
36 -9 79 -11 95 -3 17 -7 46 -10 65 -8 70 -46 278 -70 395 -14 66 -28 131 -31
145 -3 14 -25 102 -49 195 -111 429 -278 872 -481 1275 -155 307 -277 515
-474 807 -101 148 -342 457 -477 610 -379 428 -798 798 -1264 1116 -121 83
-316 207 -324 207 -3 0 -28 15 -57 33 -198 126 -612 327 -927 451 -132 52
-473 171 -517 181 -11 2 -66 17 -124 34 -195 55 -562 136 -705 156 -23 3 -52
8 -65 10 -135 27 -486 60 -750 71 -142 5 -360 10 -363 8z m-4202 -11736 c66
-56 122 -102 123 -104 18 -14 -165 -62 -342 -90 -21 -3 -46 -7 -55 -9 -9 -1
-36 -6 -61 -10 -161 -26 -252 -59 -318 -112 -53 -43 -78 -93 -81 -160 -3 -63
29 -141 79 -190 38 -38 32 -39 -75 -14 -168 41 -255 88 -255 138 0 97 122 210
474 437 148 96 231 157 328 238 19 16 21 16 41 -4 12 -11 76 -65 142 -120z"/>
</g>
</svg>
